<?xml version="1.0" encoding="utf-8"?>
<!-- Generator: Adobe Illustrator 19.1.0, SVG Export Plug-In . SVG Version: 6.00 Build 0)  -->
<svg version="1.1" id="Layer_1" xmlns="http://www.w3.org/2000/svg" xmlns:xlink="http://www.w3.org/1999/xlink" x="0px" y="0px"
	 viewBox="0 0 232.7 106.7" style="enable-background:new 0 0 232.7 106.7;" xml:space="preserve">
<style type="text/css">
	.st0{fill-rule:evenodd;clip-rule:evenodd;fill:#FFFFFF;}
</style>
<path class="st0" d="M30.9,55.1c3.7-0.4,7.2-2.2,10.9-2.2c4.8,0,5.9,4.7,6.6,8.5c0.6,3,0.7,6.2,1.4,9.1c3.2,12.5,9.4,23.5,24.2,28.6
	c4.8,1.6,11.8,3.1,17.5,4.1c9.4,1.6,22.5,2.1,34,2.4c5.9,0.1,11.8,0.9,17.8,0.9c21.5,0.2,44.8,1.6,63-7.3c5.1-2.5,9.5-7.5,11.6-11.3
	c-14.1,2.6-29.2,8.8-42.2,7.7c-5-0.4-16-3.8-19.2-8.8c10.2,0,20.4,0.1,30.6-0.5c7.9-0.5,15.4-1.8,22.9-4.2c4.4-1.4,9.4-2.6,13-5.4
	c1.7-1.3,3.2-3.4,3.9-5.5c1-2.8,1-5.8,0.9-8.8c-0.5-12.2-4.1-19.7-10.9-28.3c-13.7-17.2-46.4-20.5-67.5-16.7
	c-5.9,1.1-11.6,2.7-17.3,5.1c-7.9,3.4-16.2,8.5-21.4,16.6c-6.1,9.5-5.9,23.1-12.6,31.9C93.9,76.9,82,80.9,74,79.9
	c-8.4-1-17-4.9-19.3-13.6c-1-4-2.1-10.1,1.8-13.1c4.3-3.2,10.6,0.7,15.3,0.5C84.5,53.2,100,40.4,98,22.6c-0.4-3.8-2.4-8.7-4-12.4
	c-1.7-4-3.8-8.1-6.4-10.2c1.1,7.5,3.5,18.9-3.4,24.4c-5.8,4.6-13.4,0.9-19.9,0.7c-1.8-0.1-3.6,0.1-5.4,0.7c-4,1.6-6.2,5.3-8.6,9
	c-3.9-1.4-4.9-5.9-9.3-7.7c-9.4-3.7-19.1,6-27.9-1c-6-4.7-4.6-12.7-4.4-22.6C4.6,8.6,2.2,15.3,1.3,22.1
	C-0.9,39.1,10.9,57.2,30.9,55.1z M151.3,68c0-3.7,3-6.6,6.7-6.6c3.7,0,6.7,3,6.7,6.6c0,3.7-3,6.6-6.7,6.6
	C154.3,74.6,151.3,71.6,151.3,68z"/>
</svg>
