<?xml version="1.0" encoding="UTF-8" standalone="no"?>
<!-- Created with Inkscape (http://www.inkscape.org/) -->

<svg
   width="1920"
   height="1080"
   viewBox="0 0 508 285.75"
   version="1.1"
   id="svg1"
   xml:space="preserve"
   xmlns="http://www.w3.org/2000/svg"
   xmlns:svg="http://www.w3.org/2000/svg"><defs
     id="defs1"><clipPath
       clipPathUnits="userSpaceOnUse"
       id="clipPath12"><g
         id="use12"
         style="display:inline" /></clipPath></defs><g
     id="layer2"><text
       xml:space="preserve"
       style="font-size:52.2111px;fill:#49b054;stroke:#6064e6;stroke-width:1"
       x="85.726791"
       y="164.92873"
       id="text1"><tspan
         id="tspan1"
         style="font-style:normal;font-variant:normal;font-weight:normal;font-stretch:normal;font-size:52.2111px;font-family:Nexa;-inkscape-font-specification:Nexa;fill:#000000;fill-opacity:1;stroke:none;stroke-width:1;stroke-opacity:1"
         x="85.726791"
         y="164.92873">MOTIONWEB</tspan></text><path
       d="m 337.01608,171.87717 h -5.30768 c -10.80617,32.43613 -40.68996,55.74285 -75.94679,55.74285 -35.25679,0 -65.14162,-23.30678 -75.94833,-55.74285 h -5.30821 c 11.01332,35.20072 43.21948,60.74306 81.25654,60.74306 38.03706,0 70.24165,-25.54234 81.25447,-60.74306 z"
       style="fill:#1582c7"
       id="path7" /><path
       d="m 255.76161,57.799887 c -39.12618,0 -72.07316,27.028952 -82.13969,63.793523 h 5.17591 c 9.89261,-34.032191 40.60105,-58.793828 76.96378,-58.793828 36.36272,0 67.06958,24.761637 76.96171,58.793828 h 5.17591 C 327.83316,84.828839 294.88779,57.799887 255.76161,57.799887 Z"
       style="fill:#1582c7"
       id="path6" /><path
       d="m 312.70026,171.87717 h -5.86476 c -9.02941,19.95856 -28.67298,33.78967 -51.51365,33.78967 -22.84062,0 -42.4847,-13.83118 -51.51469,-33.78967 h -5.86372 c 9.38893,22.96269 31.53595,39.14541 57.37841,39.14541 25.84245,0 47.98947,-16.18272 57.37841,-39.14541 z"
       style="fill:#1582c7"
       id="path5" /><path
       d="m 255.32185,83.651539 c -25.38232,0 -47.17134,15.62829 -56.83684,37.941871 h 5.88646 c 9.26744,-19.30681 28.57233,-32.586641 50.95038,-32.586641 22.37801,0 41.68193,13.279891 50.94882,32.586641 h 5.88802 C 302.49317,99.279839 280.70415,83.651539 255.32185,83.651539 Z"
       style="fill:#1582c7"
       id="path4" /></g></svg>
